<mxfile host="65bd71144e" modified="2021-02-19T17:54:32.992Z" agent="5.0 (Windows NT 10.0; Win64; x64) AppleWebKit/537.36 (KHTML, like Gecko) Code/1.53.2 Chrome/87.0.4280.141 Electron/11.2.1 Safari/537.36" etag="DXnJ02HNx8bq6MjW-0yq" version="14.2.4" type="embed">
    <diagram id="msXU5LO6a3t5LYcPAf9o" name="Page-1">
        <mxGraphModel dx="1211" dy="504" grid="1" gridSize="10" guides="1" tooltips="1" connect="1" arrows="1" fold="1" page="1" pageScale="1" pageWidth="1100" pageHeight="850" background="none" math="0" shadow="0">
            <root>
                <mxCell id="0"/>
                <mxCell id="1" parent="0"/>
                <mxCell id="P6MpiE-lxGLdx-rWgf6L-6" style="edgeStyle=orthogonalEdgeStyle;rounded=0;orthogonalLoop=1;jettySize=auto;html=1;exitX=0.5;exitY=0;exitDx=0;exitDy=0;entryX=0.5;entryY=1;entryDx=0;entryDy=0;" parent="1" source="P6MpiE-lxGLdx-rWgf6L-2" target="P6MpiE-lxGLdx-rWgf6L-32" edge="1">
                    <mxGeometry relative="1" as="geometry">
                        <mxPoint x="155" y="306" as="targetPoint"/>
                    </mxGeometry>
                </mxCell>
                <mxCell id="P6MpiE-lxGLdx-rWgf6L-10" style="edgeStyle=orthogonalEdgeStyle;rounded=0;orthogonalLoop=1;jettySize=auto;html=1;exitX=1;exitY=0.5;exitDx=0;exitDy=0;entryX=0;entryY=0.5;entryDx=0;entryDy=0;fontSize=18;" parent="1" source="P6MpiE-lxGLdx-rWgf6L-2" target="P6MpiE-lxGLdx-rWgf6L-3" edge="1">
                    <mxGeometry relative="1" as="geometry"/>
                </mxCell>
                <mxCell id="P6MpiE-lxGLdx-rWgf6L-2" value="" style="shape=image;verticalLabelPosition=bottom;verticalAlign=top;imageAspect=0;aspect=fixed;image=data:image/svg+xml,PHN2ZyB4bWxucz0iaHR0cDovL3d3dy53My5vcmcvMjAwMC9zdmciIGlkPSJhMmM4ODMwNi1mYTAzLTRlNWItYjE5Mi00MDFmMGI3NzgwOGIiIHdpZHRoPSIxOCIgaGVpZ2h0PSIxOCIgdmlld0JveD0iMCAwIDE4IDE4Ij4mI3hhOyAgPGRlZnM+JiN4YTsgICAgPGxpbmVhckdyYWRpZW50IGlkPSJiNDAzYWNhNy1mMzg3LTQ0MzQtOTZiNC1hZTE1N2VkYzgzNWYiIHgxPSItMTc1Ljk5MyIgeTE9Ii0zNDMuNzIzIiB4Mj0iLTE3NS45OTMiIHkyPSItMzU5LjIzMiIgZ3JhZGllbnRUcmFuc2Zvcm09InRyYW5zbGF0ZSgyMTIuNTczIDM3MC41NDgpIHNjYWxlKDEuMTU2IDEuMDI5KSIgZ3JhZGllbnRVbml0cz0idXNlclNwYWNlT25Vc2UiPiYjeGE7ICAgICAgPHN0b3Agb2Zmc2V0PSIwIiBzdG9wLWNvbG9yPSIjZmVhMTFiIi8+JiN4YTsgICAgICA8c3RvcCBvZmZzZXQ9IjAuMjg0IiBzdG9wLWNvbG9yPSIjZmVhNTFhIi8+JiN4YTsgICAgICA8c3RvcCBvZmZzZXQ9IjAuNTQ3IiBzdG9wLWNvbG9yPSIjZmViMDE4Ii8+JiN4YTsgICAgICA8c3RvcCBvZmZzZXQ9IjAuOCIgc3RvcC1jb2xvcj0iI2ZmYzMxNCIvPiYjeGE7ICAgICAgPHN0b3Agb2Zmc2V0PSIxIiBzdG9wLWNvbG9yPSIjZmZkNzBmIi8+JiN4YTsgICAgPC9saW5lYXJHcmFkaWVudD4mI3hhOyAgPC9kZWZzPiYjeGE7ICA8dGl0bGU+SWNvbi1jb21wdXRlLTI5PC90aXRsZT4mI3hhOyAgPGc+JiN4YTsgICAgPHBhdGggZD0iTTIuMzcsNy40NzVIMy4yYS4yNjcuMjY3LDAsMCwxLC4yNjcuMjY3djYuMTQ4YS41MzMuNTMzLDAsMCwxLS41MzMuNTMzSDIuMWEwLDAsMCwwLDEsMCwwVjcuNzQxYS4yNjcuMjY3LDAsMCwxLC4yNjctLjI2N1oiIHRyYW5zZm9ybT0idHJhbnNsYXRlKDEyLjUwNyAxNi43MDUpIHJvdGF0ZSgxMzQuOTE5KSIgZmlsbD0iIzUwZTZmZiIvPiYjeGE7ICAgIDxwYXRoIGQ9Ik0yLjMyNSwzLjZoLjgzM2EuMjY3LjI2NywwLDAsMSwuMjY3LjI2N3Y2LjU4M2EwLDAsMCwwLDEsMCwwSDIuNTkxYS41MzMuNTMzLDAsMCwxLS41MzMtLjUzM1YzLjg2NUEuMjY3LjI2NywwLDAsMSwyLjMyNSwzLjZaIiB0cmFuc2Zvcm09InRyYW5zbGF0ZSg1Ljc1OSAwLjExNCkgcm90YXRlKDQ0LjkxOSkiIGZpbGw9IiMxNDkwZGYiLz4mI3hhOyAgPC9nPiYjeGE7ICA8Zz4mI3hhOyAgICA8cGF0aCBkPSJNMTQuNTMsNy40NzVoLjgzM2EuNTMzLjUzMywwLDAsMSwuNTMzLjUzM3Y2LjE0OGEuMjY3LjI2NywwLDAsMS0uMjY3LjI2N0gxNC44YS4yNjcuMjY3LDAsMCwxLS4yNjctLjI2N1Y3LjQ3NWEwLDAsMCwwLDEsMCwwWiIgdHJhbnNmb3JtPSJ0cmFuc2xhdGUoMTIuMjIzIC03LjU1NSkgcm90YXRlKDQ1LjA4MSkiIGZpbGw9IiM1MGU2ZmYiLz4mI3hhOyAgICA8cGF0aCBkPSJNMTUuMTA4LDMuNmguODMzYTAsMCwwLDAsMSwwLDB2Ni41ODNhLjI2Ny4yNjcsMCwwLDEtLjI2Ny4yNjdoLS44MzNhLjI2Ny4yNjcsMCwwLDEtLjI2Ny0uMjY3VjQuMTMxYS41MzMuNTMzLDAsMCwxLC41MzMtLjUzM1oiIHRyYW5zZm9ybT0idHJhbnNsYXRlKDMxLjAyMiAxLjIyMikgcm90YXRlKDEzNS4wODEpIiBmaWxsPSIjMTQ5MGRmIi8+JiN4YTsgIDwvZz4mI3hhOyAgPHBhdGggZD0iTTguNDU5LDkuOUg0Ljg3YS4xOTMuMTkzLDAsMCwxLS4yLS4xODEuMTY2LjE2NiwwLDAsMSwuMDE4LS4wNzVMOC45OTEsMS4xM2EuMjA2LjIwNiwwLDAsMSwuMTg2LS4xMDZoNC4yNDVhLjE5My4xOTMsMCwwLDEsLjIuMTgxLjE2NS4xNjUsMCwwLDEtLjAzNS4xTDguNTM0LDcuOTY2aDQuOTI4YS4xOTMuMTkzLDAsMCwxLC4yLjE4MS4xNzYuMTc2LDAsMCwxLS4wNTIuMTIyTDUuNDIxLDE2Ljc4OGMtLjA3Ny4wNDYtLjYyNC41LS4zNTYtLjE4OWgwWiIgZmlsbD0idXJsKCNiNDAzYWNhNy1mMzg3LTQ0MzQtOTZiNC1hZTE1N2VkYzgzNWYpIi8+JiN4YTs8L3N2Zz4=" parent="1" vertex="1">
                    <mxGeometry x="115" y="390" width="80" height="80" as="geometry"/>
                </mxCell>
                <mxCell id="P6MpiE-lxGLdx-rWgf6L-14" style="edgeStyle=orthogonalEdgeStyle;rounded=0;orthogonalLoop=1;jettySize=auto;html=1;exitX=1;exitY=0.5;exitDx=0;exitDy=0;entryX=0;entryY=0.5;entryDx=0;entryDy=0;fontSize=18;" parent="1" source="P6MpiE-lxGLdx-rWgf6L-3" target="P6MpiE-lxGLdx-rWgf6L-9" edge="1">
                    <mxGeometry relative="1" as="geometry"/>
                </mxCell>
                <mxCell id="P6MpiE-lxGLdx-rWgf6L-3" value="" style="shape=image;verticalLabelPosition=bottom;verticalAlign=top;imageAspect=0;aspect=fixed;image=data:image/svg+xml,PHN2ZyB4bWxucz0iaHR0cDovL3d3dy53My5vcmcvMjAwMC9zdmciIGlkPSJmMmYwNDM0OS04YWVlLTQ0MTMtODRjOS1hOTA1MzYxMWIzMTkiIHdpZHRoPSIxOCIgaGVpZ2h0PSIxOCIgdmlld0JveD0iMCAwIDE4IDE4Ij4mI3hhOyAgPGRlZnM+JiN4YTsgICAgPGxpbmVhckdyYWRpZW50IGlkPSJhZDRjNGY5Ni0wOWFhLTRmOTEtYmExMC01Y2I4YWQ1MzBmNzQiIHgxPSI5IiB5MT0iMTUuODMiIHgyPSI5IiB5Mj0iNS43OSIgZ3JhZGllbnRVbml0cz0idXNlclNwYWNlT25Vc2UiPiYjeGE7ICAgICAgPHN0b3Agb2Zmc2V0PSIwIiBzdG9wLWNvbG9yPSIjYjNiM2IzIi8+JiN4YTsgICAgICA8c3RvcCBvZmZzZXQ9IjAuMjYiIHN0b3AtY29sb3I9IiNjMWMxYzEiLz4mI3hhOyAgICAgIDxzdG9wIG9mZnNldD0iMSIgc3RvcC1jb2xvcj0iI2U2ZTZlNiIvPiYjeGE7ICAgIDwvbGluZWFyR3JhZGllbnQ+JiN4YTsgIDwvZGVmcz4mI3hhOyAgPHRpdGxlPkljb24tc3RvcmFnZS04NjwvdGl0bGU+JiN4YTsgIDxwYXRoIGQ9Ik0uNSw1Ljc5aDE3YTAsMCwwLDAsMSwwLDB2OS40OGEuNTcuNTcsMCwwLDEtLjU3LjU3SDEuMDdhLjU3LjU3LDAsMCwxLS41Ny0uNTdWNS43OUEwLDAsMCwwLDEsLjUsNS43OVoiIGZpbGw9InVybCgjYWQ0YzRmOTYtMDlhYS00ZjkxLWJhMTAtNWNiOGFkNTMwZjc0KSIvPiYjeGE7ICA8cGF0aCBkPSJNMS4wNywyLjE3SDE2LjkzYS41Ny41NywwLDAsMSwuNTcuNTdWNS43OWEwLDAsMCwwLDEsMCwwSC41YTAsMCwwLDAsMSwwLDBWMi43M0EuNTcuNTcsMCwwLDEsMS4wNywyLjE3WiIgZmlsbD0iIzM3YzJiMSIvPiYjeGE7ICA8cGF0aCBkPSJNMi44MSw2Ljg5SDE1LjE4YS4yNy4yNywwLDAsMSwuMjYuMjd2MS40YS4yNy4yNywwLDAsMS0uMjYuMjdIMi44MWEuMjcuMjcsMCwwLDEtLjI2LS4yN1Y3LjE2QS4yNy4yNywwLDAsMSwyLjgxLDYuODlaIiBmaWxsPSIjZmZmIi8+JiN4YTsgIDxwYXRoIGQ9Ik0yLjgyLDkuNjhIMTUuMTlhLjI3LjI3LDAsMCwxLC4yNi4yN3YxLjQxYS4yNy4yNywwLDAsMS0uMjYuMjdIMi44MmEuMjcuMjcsMCwwLDEtLjI2LS4yN1YxMEEuMjcuMjcsMCwwLDEsMi44Miw5LjY4WiIgZmlsbD0iIzM3YzJiMSIvPiYjeGE7ICA8cGF0aCBkPSJNMi44MiwxMi41SDE1LjE5YS4yNy4yNywwLDAsMSwuMjYuMjd2MS40MWEuMjcuMjcsMCwwLDEtLjI2LjI3SDIuODJhLjI3LjI3LDAsMCwxLS4yNi0uMjdWMTIuNzdBLjI3LjI3LDAsMCwxLDIuODIsMTIuNVoiIGZpbGw9IiMyNTgyNzciLz4mI3hhOzwvc3ZnPg==" parent="1" vertex="1">
                    <mxGeometry x="275" y="390" width="80" height="80" as="geometry"/>
                </mxCell>
                <mxCell id="P6MpiE-lxGLdx-rWgf6L-8" value="TSA Throughput System Diagram" style="text;html=1;strokeColor=none;fillColor=none;align=left;verticalAlign=middle;whiteSpace=wrap;rounded=0;fontSize=18;spacing=3;" parent="1" vertex="1">
                    <mxGeometry x="80" y="60" width="290" height="20" as="geometry"/>
                </mxCell>
                <mxCell id="P6MpiE-lxGLdx-rWgf6L-13" style="edgeStyle=orthogonalEdgeStyle;rounded=0;orthogonalLoop=1;jettySize=auto;html=1;exitX=0.25;exitY=0;exitDx=0;exitDy=0;fontSize=18;entryX=0.25;entryY=1;entryDx=0;entryDy=0;" parent="1" source="P6MpiE-lxGLdx-rWgf6L-9" target="P6MpiE-lxGLdx-rWgf6L-12" edge="1">
                    <mxGeometry relative="1" as="geometry">
                        <mxPoint x="475" y="380" as="targetPoint"/>
                    </mxGeometry>
                </mxCell>
                <mxCell id="P6MpiE-lxGLdx-rWgf6L-28" style="edgeStyle=orthogonalEdgeStyle;rounded=0;orthogonalLoop=1;jettySize=auto;html=1;exitX=1;exitY=0.5;exitDx=0;exitDy=0;entryX=0;entryY=0.5;entryDx=0;entryDy=0;fontSize=18;" parent="1" source="P6MpiE-lxGLdx-rWgf6L-9" target="P6MpiE-lxGLdx-rWgf6L-26" edge="1">
                    <mxGeometry relative="1" as="geometry"/>
                </mxCell>
                <mxCell id="P6MpiE-lxGLdx-rWgf6L-9" value="" style="shape=image;verticalLabelPosition=bottom;verticalAlign=top;imageAspect=0;aspect=fixed;image=data:image/svg+xml,PHN2ZyB4bWxucz0iaHR0cDovL3d3dy53My5vcmcvMjAwMC9zdmciIGlkPSJhMmM4ODMwNi1mYTAzLTRlNWItYjE5Mi00MDFmMGI3NzgwOGIiIHdpZHRoPSIxOCIgaGVpZ2h0PSIxOCIgdmlld0JveD0iMCAwIDE4IDE4Ij4mI3hhOyAgPGRlZnM+JiN4YTsgICAgPGxpbmVhckdyYWRpZW50IGlkPSJiNDAzYWNhNy1mMzg3LTQ0MzQtOTZiNC1hZTE1N2VkYzgzNWYiIHgxPSItMTc1Ljk5MyIgeTE9Ii0zNDMuNzIzIiB4Mj0iLTE3NS45OTMiIHkyPSItMzU5LjIzMiIgZ3JhZGllbnRUcmFuc2Zvcm09InRyYW5zbGF0ZSgyMTIuNTczIDM3MC41NDgpIHNjYWxlKDEuMTU2IDEuMDI5KSIgZ3JhZGllbnRVbml0cz0idXNlclNwYWNlT25Vc2UiPiYjeGE7ICAgICAgPHN0b3Agb2Zmc2V0PSIwIiBzdG9wLWNvbG9yPSIjZmVhMTFiIi8+JiN4YTsgICAgICA8c3RvcCBvZmZzZXQ9IjAuMjg0IiBzdG9wLWNvbG9yPSIjZmVhNTFhIi8+JiN4YTsgICAgICA8c3RvcCBvZmZzZXQ9IjAuNTQ3IiBzdG9wLWNvbG9yPSIjZmViMDE4Ii8+JiN4YTsgICAgICA8c3RvcCBvZmZzZXQ9IjAuOCIgc3RvcC1jb2xvcj0iI2ZmYzMxNCIvPiYjeGE7ICAgICAgPHN0b3Agb2Zmc2V0PSIxIiBzdG9wLWNvbG9yPSIjZmZkNzBmIi8+JiN4YTsgICAgPC9saW5lYXJHcmFkaWVudD4mI3hhOyAgPC9kZWZzPiYjeGE7ICA8dGl0bGU+SWNvbi1jb21wdXRlLTI5PC90aXRsZT4mI3hhOyAgPGc+JiN4YTsgICAgPHBhdGggZD0iTTIuMzcsNy40NzVIMy4yYS4yNjcuMjY3LDAsMCwxLC4yNjcuMjY3djYuMTQ4YS41MzMuNTMzLDAsMCwxLS41MzMuNTMzSDIuMWEwLDAsMCwwLDEsMCwwVjcuNzQxYS4yNjcuMjY3LDAsMCwxLC4yNjctLjI2N1oiIHRyYW5zZm9ybT0idHJhbnNsYXRlKDEyLjUwNyAxNi43MDUpIHJvdGF0ZSgxMzQuOTE5KSIgZmlsbD0iIzUwZTZmZiIvPiYjeGE7ICAgIDxwYXRoIGQ9Ik0yLjMyNSwzLjZoLjgzM2EuMjY3LjI2NywwLDAsMSwuMjY3LjI2N3Y2LjU4M2EwLDAsMCwwLDEsMCwwSDIuNTkxYS41MzMuNTMzLDAsMCwxLS41MzMtLjUzM1YzLjg2NUEuMjY3LjI2NywwLDAsMSwyLjMyNSwzLjZaIiB0cmFuc2Zvcm09InRyYW5zbGF0ZSg1Ljc1OSAwLjExNCkgcm90YXRlKDQ0LjkxOSkiIGZpbGw9IiMxNDkwZGYiLz4mI3hhOyAgPC9nPiYjeGE7ICA8Zz4mI3hhOyAgICA8cGF0aCBkPSJNMTQuNTMsNy40NzVoLjgzM2EuNTMzLjUzMywwLDAsMSwuNTMzLjUzM3Y2LjE0OGEuMjY3LjI2NywwLDAsMS0uMjY3LjI2N0gxNC44YS4yNjcuMjY3LDAsMCwxLS4yNjctLjI2N1Y3LjQ3NWEwLDAsMCwwLDEsMCwwWiIgdHJhbnNmb3JtPSJ0cmFuc2xhdGUoMTIuMjIzIC03LjU1NSkgcm90YXRlKDQ1LjA4MSkiIGZpbGw9IiM1MGU2ZmYiLz4mI3hhOyAgICA8cGF0aCBkPSJNMTUuMTA4LDMuNmguODMzYTAsMCwwLDAsMSwwLDB2Ni41ODNhLjI2Ny4yNjcsMCwwLDEtLjI2Ny4yNjdoLS44MzNhLjI2Ny4yNjcsMCwwLDEtLjI2Ny0uMjY3VjQuMTMxYS41MzMuNTMzLDAsMCwxLC41MzMtLjUzM1oiIHRyYW5zZm9ybT0idHJhbnNsYXRlKDMxLjAyMiAxLjIyMikgcm90YXRlKDEzNS4wODEpIiBmaWxsPSIjMTQ5MGRmIi8+JiN4YTsgIDwvZz4mI3hhOyAgPHBhdGggZD0iTTguNDU5LDkuOUg0Ljg3YS4xOTMuMTkzLDAsMCwxLS4yLS4xODEuMTY2LjE2NiwwLDAsMSwuMDE4LS4wNzVMOC45OTEsMS4xM2EuMjA2LjIwNiwwLDAsMSwuMTg2LS4xMDZoNC4yNDVhLjE5My4xOTMsMCwwLDEsLjIuMTgxLjE2NS4xNjUsMCwwLDEtLjAzNS4xTDguNTM0LDcuOTY2aDQuOTI4YS4xOTMuMTkzLDAsMCwxLC4yLjE4MS4xNzYuMTc2LDAsMCwxLS4wNTIuMTIyTDUuNDIxLDE2Ljc4OGMtLjA3Ny4wNDYtLjYyNC41LS4zNTYtLjE4OWgwWiIgZmlsbD0idXJsKCNiNDAzYWNhNy1mMzg3LTQ0MzQtOTZiNC1hZTE1N2VkYzgzNWYpIi8+JiN4YTs8L3N2Zz4=" parent="1" vertex="1">
                    <mxGeometry x="435" y="390" width="80" height="80" as="geometry"/>
                </mxCell>
                <mxCell id="P6MpiE-lxGLdx-rWgf6L-15" style="edgeStyle=orthogonalEdgeStyle;rounded=0;orthogonalLoop=1;jettySize=auto;html=1;exitX=0.75;exitY=1;exitDx=0;exitDy=0;entryX=0.75;entryY=0;entryDx=0;entryDy=0;fontSize=18;" parent="1" source="P6MpiE-lxGLdx-rWgf6L-12" target="P6MpiE-lxGLdx-rWgf6L-9" edge="1">
                    <mxGeometry relative="1" as="geometry"/>
                </mxCell>
                <mxCell id="P6MpiE-lxGLdx-rWgf6L-12" value="" style="shape=image;verticalLabelPosition=bottom;verticalAlign=top;imageAspect=0;aspect=fixed;image=data:image/svg+xml,PHN2ZyB4bWxucz0iaHR0cDovL3d3dy53My5vcmcvMjAwMC9zdmciIGlkPSJmNzhmNTExNS1iZTg4LTRkNDQtYjM0ZS0zZjZlYTc0MzEyNWMiIHdpZHRoPSIxOCIgaGVpZ2h0PSIxOCIgdmlld0JveD0iMCAwIDE4IDE4Ij48ZGVmcz48bGluZWFyR3JhZGllbnQgaWQ9ImI2YzQzYmQ5LWUzN2YtNDE5MS05M2MyLWQzYTdhODRjNTA1ZSIgeDE9IjkiIHkxPSIxOS4xMyIgeDI9IjkiIHkyPSItMC4yOSIgZ3JhZGllbnRVbml0cz0idXNlclNwYWNlT25Vc2UiPjxzdG9wIG9mZnNldD0iMCIgc3RvcC1jb2xvcj0iIzAwNzhkNCIvPjxzdG9wIG9mZnNldD0iMC4xNiIgc3RvcC1jb2xvcj0iIzEzODBkYSIvPjxzdG9wIG9mZnNldD0iMC41MyIgc3RvcC1jb2xvcj0iIzNjOTFlNSIvPjxzdG9wIG9mZnNldD0iMC44MiIgc3RvcC1jb2xvcj0iIzU1OWNlYyIvPjxzdG9wIG9mZnNldD0iMSIgc3RvcC1jb2xvcj0iIzVlYTBlZiIvPjwvbGluZWFyR3JhZGllbnQ+PC9kZWZzPjx0aXRsZT5JY29uLW1hY2hpbmVsZWFybmluZy0xNjI8L3RpdGxlPjxwYXRoIGQ9Ik0xOCwxMS4zOEE0LDQsMCwwLDAsMTQuNDksNy41LDUuMSw1LjEsMCwwLDAsOS4yNCwyLjYyLDUuMjUsNS4yNSwwLDAsMCw0LjIyLDYsNC44LDQuOCwwLDAsMCwwLDEwLjY3YTQuOSw0LjksMCwwLDAsNS4wNyw0LjcxbC40NCwwaDguMjFhLjc4Ljc4LDAsMCwwLC4yMiwwQTQuMSw0LjEsMCwwLDAsMTgsMTEuMzhaIiBmaWxsPSJ1cmwoI2I2YzQzYmQ5LWUzN2YtNDE5MS05M2MyLWQzYTdhODRjNTA1ZSkiLz48cGF0aCBkPSJNNS40MiwxMC4zOUg0LjU0YTEuMDksMS4wOSwwLDEsMCwwLC40OWguODhhLjIuMiwwLDAsMSwuMi4ydjQuM2guNDl2LTQuM0EuNjkuNjksMCwwLDAsNS40MiwxMC4zOVptLTEuOTUuODhhLjY0LjY0LDAsMSwxLC42NC0uNjRBLjY0LjY0LDAsMCwxLDMuNDcsMTEuMjdaIiBmaWxsPSIjOWNlYmZmIi8+PHBhdGggZD0iTTguOTQsMTAuNjF2LTFhLjcuNywwLDAsMC0uNy0uN0g2LjY5YS4yLjIsMCwwLDEtLjItLjJWMy40bC0uMjMuMTJMNiwzLjY2djVhLjY5LjY5LDAsMCwwLC42OS42OUg4LjI0YS4yMS4yMSwwLDAsMSwuMjEuMjF2MWExLjA4LDEuMDgsMCwwLDAtLjg1LDEuMDYsMS4wOSwxLjA5LDAsMSwwLDEuMzQtMS4wNlptLS4yNSwxLjdoMGEuNjQuNjQsMCwxLDEsLjY0LS42NEEuNjQuNjQsMCwwLDEsOC42OSwxMi4zMVoiIGZpbGw9IiNmMmYyZjIiLz48cGF0aCBkPSJNMTQuNTMsOC41YTEuMDksMS4wOSwwLDAsMC0uMjUsMi4xNXYuMmEuMjEuMjEsMCwwLDEtLjIxLjIxaC0yVjcuNTRhLjY5LjY5LDAsMCwwLS42OS0uNjlIMTAuMzVBMS4wOCwxLjA4LDAsMCwwLDkuMjksNmExLjA5LDEuMDksMCwxLDAsMS4wNiwxLjM0aDEuMDdhLjIuMiwwLDAsMSwuMi4ydjcuODRoLjQ5VjExLjU1aDJhLjcuNywwLDAsMCwuNy0uN3YtLjJhMS4wOSwxLjA5LDAsMCwwLC44NS0xLjA2aDBBMS4wOSwxLjA5LDAsMCwwLDE0LjUzLDguNVpNOS4yOSw3LjczaDBhLjY0LjY0LDAsMSwxLC42NC0uNjRBLjY0LjY0LDAsMCwxLDkuMjksNy43M1ptNS4yNCwyLjVoMGEuNjQuNjQsMCwxLDEsLjYzLS42NEEuNjQuNjQsMCwwLDEsMTQuNTMsMTAuMjNaIiBmaWxsPSIjOWNlYmZmIi8+PC9zdmc+;fontSize=18;" parent="1" vertex="1">
                    <mxGeometry x="435" y="230" width="80" height="80" as="geometry"/>
                </mxCell>
                <mxCell id="P6MpiE-lxGLdx-rWgf6L-34" style="edgeStyle=orthogonalEdgeStyle;rounded=0;orthogonalLoop=1;jettySize=auto;html=1;exitX=0.5;exitY=0;exitDx=0;exitDy=0;entryX=0.5;entryY=1;entryDx=0;entryDy=0;fontSize=18;" parent="1" source="P6MpiE-lxGLdx-rWgf6L-16" target="P6MpiE-lxGLdx-rWgf6L-31" edge="1">
                    <mxGeometry relative="1" as="geometry"/>
                </mxCell>
                <mxCell id="P6MpiE-lxGLdx-rWgf6L-16" value="" style="shape=image;verticalLabelPosition=bottom;verticalAlign=top;imageAspect=0;aspect=fixed;image=data:image/svg+xml,PHN2ZyB4bWxucz0iaHR0cDovL3d3dy53My5vcmcvMjAwMC9zdmciIGlkPSJiMDg5Y2ZjYS0wZGUxLTQ1MWMtYTFjYS02NjgwZWE1MGNiNGYiIHdpZHRoPSIxOCIgaGVpZ2h0PSIxOCIgdmlld0JveD0iMCAwIDE4IDE4Ij4mI3hhOyAgPGRlZnM+JiN4YTsgICAgPHJhZGlhbEdyYWRpZW50IGlkPSJiMjVkMDgzNi05NjRhLTRjODQtOGMyMC04NTVmNjZlODM0NWUiIGN4PSItMTA1LjAwNiIgY3k9Ii0xMC40MDkiIHI9IjUuOTU0IiBncmFkaWVudFRyYW5zZm9ybT0idHJhbnNsYXRlKDExNy43MzkgMTkuNjQ0KSBzY2FsZSgxLjAzNiAxLjAyNykiIGdyYWRpZW50VW5pdHM9InVzZXJTcGFjZU9uVXNlIj4mI3hhOyAgICAgIDxzdG9wIG9mZnNldD0iMC4xODMiIHN0b3AtY29sb3I9IiM1ZWEwZWYiLz4mI3hhOyAgICAgIDxzdG9wIG9mZnNldD0iMSIgc3RvcC1jb2xvcj0iIzAwNzhkNCIvPiYjeGE7ICAgIDwvcmFkaWFsR3JhZGllbnQ+JiN4YTsgICAgPGNsaXBQYXRoIGlkPSJiMzZjN2Y1ZC0yZWYxLTQ3NjAtOGEyNS1lZWI5NjYxZjRlNDciPiYjeGE7ICAgICAgPHBhdGggZD0iTTE0Ljk2OSw3LjUzQTYuMTM3LDYuMTM3LDAsMSwxLDcuNTc0LDIuOTg3LDYuMTM3LDYuMTM3LDAsMCwxLDE0Ljk2OSw3LjUzWiIgZmlsbD0ibm9uZSIvPiYjeGE7ICAgIDwvY2xpcFBhdGg+JiN4YTsgIDwvZGVmcz4mI3hhOyAgPHRpdGxlPkljb24tZGF0YWJhc2VzLTEyMTwvdGl0bGU+JiN4YTsgIDxwYXRoIGQ9Ik0yLjk1NCw1LjI2NmEuMTc1LjE3NSwwLDAsMS0uMTc2LS4xNzZoMEEyLjAxMiwyLjAxMiwwLDAsMCwuNzY5LDMuMDgxYS4xNzYuMTc2LDAsMCwxLS4xNzYtLjE3NWgwYS4xNzYuMTc2LDAsMCwxLC4xNzYtLjE3NkEyLjAxMiwyLjAxMiwwLDAsMCwyLjc3OC43Mi4xNzUuMTc1LDAsMCwxLDIuOTU0LjU0NGgwQS4xNzUuMTc1LDAsMCwxLDMuMTMuNzJoMEEyLjAxMiwyLjAxMiwwLDAsMCw1LjEzOSwyLjcyOWEuMTc1LjE3NSwwLDAsMSwuMTc2LjE3NmgwYS4xNzUuMTc1LDAsMCwxLS4xNzYuMTc2aDBBMi4wMTEsMi4wMTEsMCwwLDAsMy4xMyw1LjA5LjE3Ny4xNzcsMCwwLDEsMi45NTQsNS4yNjZaIiBmaWxsPSIjNTBlNmZmIi8+JiN4YTsgIDxwYXRoIGQ9Ik0xNS42MTEsMTcuNDU2YS4xNDEuMTQxLDAsMCwxLS4xNDEtLjE0MWgwYTEuNjA5LDEuNjA5LDAsMCwwLTEuNjA3LTEuNjA3LjE0MS4xNDEsMCwwLDEtLjE0MS0uMTRoMGEuMTQxLjE0MSwwLDAsMSwuMTQxLS4xNDFoMGExLjYwOCwxLjYwOCwwLDAsMCwxLjYwNy0xLjYwNy4xNDEuMTQxLDAsMCwxLC4xNDEtLjE0MWgwYS4xNDEuMTQxLDAsMCwxLC4xNDEuMTQxaDBhMS42MDgsMS42MDgsMCwwLDAsMS42MDcsMS42MDcuMTQxLjE0MSwwLDEsMSwwLC4yODJoMGExLjYwOSwxLjYwOSwwLDAsMC0xLjYwNywxLjYwN0EuMTQxLjE0MSwwLDAsMSwxNS42MTEsMTcuNDU2WiIgZmlsbD0iIzUwZTZmZiIvPiYjeGE7ICA8Zz4mI3hhOyAgICA8cGF0aCBkPSJNMTQuOTY5LDcuNTNBNi4xMzcsNi4xMzcsMCwxLDEsNy41NzQsMi45ODcsNi4xMzcsNi4xMzcsMCwwLDEsMTQuOTY5LDcuNTNaIiBmaWxsPSJ1cmwoI2IyNWQwODM2LTk2NGEtNGM4NC04YzIwLTg1NWY2NmU4MzQ1ZSkiLz4mI3hhOyAgICA8ZyBjbGlwLXBhdGg9InVybCgjYjM2YzdmNWQtMmVmMS00NzYwLThhMjUtZWViOTY2MWY0ZTQ3KSI+JiN4YTsgICAgICA8cGF0aCBkPSJNNS43MDksMTMuMTE1QTEuNjM4LDEuNjM4LDAsMSwwLDUuNzE0LDkuODQsMS4zMDcsMS4zMDcsMCwwLDAsNS43MjEsOS43LDEuNjUxLDEuNjUxLDAsMCwwLDQuMDYsOC4wNjRIMi44MzJhNi4yNTEsNi4yNTEsMCwwLDAsMS41OTUsNS4wNTFaIiBmaWxsPSIjZjJmMmYyIi8+JiN4YTsgICAgICA8cGF0aCBkPSJNMTUuMDQ1LDcuODE1YzAtLjAxNSwwLS4wMy0uMDA3LS4wNDRhNS45NzgsNS45NzgsMCwwLDAtMS40MDYtMi44OCwxLjgyNSwxLjgyNSwwLDAsMC0uMjg5LS4wOSwxLjgwNiwxLjgwNiwwLDAsMC0yLjMsMS42NjMsMiwyLDAsMCwwLS4yLS4wMTMsMS43MzcsMS43MzcsMCwwLDAtLjU4MSwzLjM3NCwxLjQ1MSwxLjQ1MSwwLDAsMCwuNTQxLjFoMi4wM0ExMy40NTMsMTMuNDUzLDAsMCwwLDE1LjA0NSw3LjgxNVoiIGZpbGw9IiNmMmYyZjIiLz4mI3hhOyAgICA8L2c+JiN4YTsgIDwvZz4mI3hhOyAgPHBhdGggZD0iTTE3LjE5MSwzLjgzMmMtLjYyOS0xLjA0Ny0yLjEtMS40NTUtNC4xNTUtMS4xNDlhMTQuNjA2LDE0LjYwNiwwLDAsMC0yLjA4Mi40NTIsNi40NTYsNi40NTYsMCwwLDEsMS41MjguNzY3Yy4yNDEtLjA1My40ODMtLjExNi43MTUtLjE1MUE3LjQ5LDcuNDksMCwwLDEsMTQuMywzLjY2MmEyLjE4OCwyLjE4OCwwLDAsMSwxLjk1OS43MjVoMGMuMzgzLjYzOC4wNiwxLjcyOS0uODg2LDNhMTYuNzIzLDE2LjcyMywwLDAsMS00Ljc0OSw0LjA1MUExNi43NTgsMTYuNzU4LDAsMCwxLDQuOCwxMy43Yy0xLjU2NC4yMzQtMi42ODIsMC0zLjA2NS0uNjM2cy0uMDYtMS43My44ODYtMi45OTVjLjExNy0uMTU3LjE0Ni0uMjM0LjI3OS0uMzkyYTYuMjUyLDYuMjUyLDAsMCwxLC4wMjYtMS42M0ExMS41NTIsMTEuNTUyLDAsMCwwLDEuNzU2LDkuNDE5Qy41MTcsMTEuMDc2LjE4MSwxMi41NjYuODA5LDEzLjYxM2EzLjE2NSwzLjE2NSwwLDAsMCwyLjksMS4yNDksOC40MzQsOC40MzQsMCwwLDAsMS4yNTEtLjEsMTcuODU1LDE3Ljg1NSwwLDAsMCw2LjIxOS0yLjQsMTcuODA4LDE3LjgwOCwwLDAsMCw1LjA2MS00LjMzMkMxNy40ODMsNi4zNjksMTcuODE5LDQuODgsMTcuMTkxLDMuODMyWiIgZmlsbD0iIzUwZTZmZiIvPiYjeGE7PC9zdmc+;fontSize=18;" parent="1" vertex="1">
                    <mxGeometry x="755" y="550" width="80" height="80" as="geometry"/>
                </mxCell>
                <mxCell id="P6MpiE-lxGLdx-rWgf6L-30" style="edgeStyle=orthogonalEdgeStyle;rounded=0;orthogonalLoop=1;jettySize=auto;html=1;exitX=1;exitY=0.5;exitDx=0;exitDy=0;entryX=0;entryY=0.5;entryDx=0;entryDy=0;fontSize=18;" parent="1" source="P6MpiE-lxGLdx-rWgf6L-18" target="P6MpiE-lxGLdx-rWgf6L-16" edge="1">
                    <mxGeometry relative="1" as="geometry"/>
                </mxCell>
                <mxCell id="P6MpiE-lxGLdx-rWgf6L-18" value="" style="shape=image;verticalLabelPosition=bottom;verticalAlign=top;imageAspect=0;aspect=fixed;image=data:image/svg+xml,PHN2ZyB4bWxucz0iaHR0cDovL3d3dy53My5vcmcvMjAwMC9zdmciIGlkPSJhMmM4ODMwNi1mYTAzLTRlNWItYjE5Mi00MDFmMGI3NzgwOGIiIHdpZHRoPSIxOCIgaGVpZ2h0PSIxOCIgdmlld0JveD0iMCAwIDE4IDE4Ij4mI3hhOyAgPGRlZnM+JiN4YTsgICAgPGxpbmVhckdyYWRpZW50IGlkPSJiNDAzYWNhNy1mMzg3LTQ0MzQtOTZiNC1hZTE1N2VkYzgzNWYiIHgxPSItMTc1Ljk5MyIgeTE9Ii0zNDMuNzIzIiB4Mj0iLTE3NS45OTMiIHkyPSItMzU5LjIzMiIgZ3JhZGllbnRUcmFuc2Zvcm09InRyYW5zbGF0ZSgyMTIuNTczIDM3MC41NDgpIHNjYWxlKDEuMTU2IDEuMDI5KSIgZ3JhZGllbnRVbml0cz0idXNlclNwYWNlT25Vc2UiPiYjeGE7ICAgICAgPHN0b3Agb2Zmc2V0PSIwIiBzdG9wLWNvbG9yPSIjZmVhMTFiIi8+JiN4YTsgICAgICA8c3RvcCBvZmZzZXQ9IjAuMjg0IiBzdG9wLWNvbG9yPSIjZmVhNTFhIi8+JiN4YTsgICAgICA8c3RvcCBvZmZzZXQ9IjAuNTQ3IiBzdG9wLWNvbG9yPSIjZmViMDE4Ii8+JiN4YTsgICAgICA8c3RvcCBvZmZzZXQ9IjAuOCIgc3RvcC1jb2xvcj0iI2ZmYzMxNCIvPiYjeGE7ICAgICAgPHN0b3Agb2Zmc2V0PSIxIiBzdG9wLWNvbG9yPSIjZmZkNzBmIi8+JiN4YTsgICAgPC9saW5lYXJHcmFkaWVudD4mI3hhOyAgPC9kZWZzPiYjeGE7ICA8dGl0bGU+SWNvbi1jb21wdXRlLTI5PC90aXRsZT4mI3hhOyAgPGc+JiN4YTsgICAgPHBhdGggZD0iTTIuMzcsNy40NzVIMy4yYS4yNjcuMjY3LDAsMCwxLC4yNjcuMjY3djYuMTQ4YS41MzMuNTMzLDAsMCwxLS41MzMuNTMzSDIuMWEwLDAsMCwwLDEsMCwwVjcuNzQxYS4yNjcuMjY3LDAsMCwxLC4yNjctLjI2N1oiIHRyYW5zZm9ybT0idHJhbnNsYXRlKDEyLjUwNyAxNi43MDUpIHJvdGF0ZSgxMzQuOTE5KSIgZmlsbD0iIzUwZTZmZiIvPiYjeGE7ICAgIDxwYXRoIGQ9Ik0yLjMyNSwzLjZoLjgzM2EuMjY3LjI2NywwLDAsMSwuMjY3LjI2N3Y2LjU4M2EwLDAsMCwwLDEsMCwwSDIuNTkxYS41MzMuNTMzLDAsMCwxLS41MzMtLjUzM1YzLjg2NUEuMjY3LjI2NywwLDAsMSwyLjMyNSwzLjZaIiB0cmFuc2Zvcm09InRyYW5zbGF0ZSg1Ljc1OSAwLjExNCkgcm90YXRlKDQ0LjkxOSkiIGZpbGw9IiMxNDkwZGYiLz4mI3hhOyAgPC9nPiYjeGE7ICA8Zz4mI3hhOyAgICA8cGF0aCBkPSJNMTQuNTMsNy40NzVoLjgzM2EuNTMzLjUzMywwLDAsMSwuNTMzLjUzM3Y2LjE0OGEuMjY3LjI2NywwLDAsMS0uMjY3LjI2N0gxNC44YS4yNjcuMjY3LDAsMCwxLS4yNjctLjI2N1Y3LjQ3NWEwLDAsMCwwLDEsMCwwWiIgdHJhbnNmb3JtPSJ0cmFuc2xhdGUoMTIuMjIzIC03LjU1NSkgcm90YXRlKDQ1LjA4MSkiIGZpbGw9IiM1MGU2ZmYiLz4mI3hhOyAgICA8cGF0aCBkPSJNMTUuMTA4LDMuNmguODMzYTAsMCwwLDAsMSwwLDB2Ni41ODNhLjI2Ny4yNjcsMCwwLDEtLjI2Ny4yNjdoLS44MzNhLjI2Ny4yNjcsMCwwLDEtLjI2Ny0uMjY3VjQuMTMxYS41MzMuNTMzLDAsMCwxLC41MzMtLjUzM1oiIHRyYW5zZm9ybT0idHJhbnNsYXRlKDMxLjAyMiAxLjIyMikgcm90YXRlKDEzNS4wODEpIiBmaWxsPSIjMTQ5MGRmIi8+JiN4YTsgIDwvZz4mI3hhOyAgPHBhdGggZD0iTTguNDU5LDkuOUg0Ljg3YS4xOTMuMTkzLDAsMCwxLS4yLS4xODEuMTY2LjE2NiwwLDAsMSwuMDE4LS4wNzVMOC45OTEsMS4xM2EuMjA2LjIwNiwwLDAsMSwuMTg2LS4xMDZoNC4yNDVhLjE5My4xOTMsMCwwLDEsLjIuMTgxLjE2NS4xNjUsMCwwLDEtLjAzNS4xTDguNTM0LDcuOTY2aDQuOTI4YS4xOTMuMTkzLDAsMCwxLC4yLjE4MS4xNzYuMTc2LDAsMCwxLS4wNTIuMTIyTDUuNDIxLDE2Ljc4OGMtLjA3Ny4wNDYtLjYyNC41LS4zNTYtLjE4OWgwWiIgZmlsbD0idXJsKCNiNDAzYWNhNy1mMzg3LTQ0MzQtOTZiNC1hZTE1N2VkYzgzNWYpIi8+JiN4YTs8L3N2Zz4=" parent="1" vertex="1">
                    <mxGeometry x="595" y="550" width="80" height="80" as="geometry"/>
                </mxCell>
                <mxCell id="P6MpiE-lxGLdx-rWgf6L-29" style="edgeStyle=orthogonalEdgeStyle;rounded=0;orthogonalLoop=1;jettySize=auto;html=1;exitX=0.5;exitY=1;exitDx=0;exitDy=0;fontSize=18;" parent="1" source="P6MpiE-lxGLdx-rWgf6L-26" target="P6MpiE-lxGLdx-rWgf6L-18" edge="1">
                    <mxGeometry relative="1" as="geometry"/>
                </mxCell>
                <mxCell id="P6MpiE-lxGLdx-rWgf6L-26" value="" style="shape=image;verticalLabelPosition=bottom;verticalAlign=top;imageAspect=0;aspect=fixed;image=data:image/svg+xml,PHN2ZyB4bWxucz0iaHR0cDovL3d3dy53My5vcmcvMjAwMC9zdmciIGlkPSJiZTAyZTkyYS1mMWFjLTQzNmItODVjZC1jN2ZhNmQ3MWE3YWIiIHdpZHRoPSIxOCIgaGVpZ2h0PSIxOCIgdmlld0JveD0iMCAwIDE4IDE4Ij4mI3hhOyAgICA8ZGVmcz4mI3hhOyAgICAgICAgPGxpbmVhckdyYWRpZW50IGlkPSJhMmY1YTM5OS1lNTEzLTRiNWQtOWI1MC1lNWNiNjgwNjMyM2QiIHgxPSI5LjI0IiB5MT0iMC45NiIgeDI9IjguODUiIHkyPSIxNi41MiIgZ3JhZGllbnRVbml0cz0idXNlclNwYWNlT25Vc2UiPiYjeGE7ICAgICAgICAgICAgPHN0b3Agb2Zmc2V0PSIwIiBzdG9wLWNvbG9yPSIjMzJkNGY1Ii8+JiN4YTsgICAgICAgICAgICA8c3RvcCBvZmZzZXQ9IjAuMjMiIHN0b3AtY29sb3I9IiMzMWQwZjEiLz4mI3hhOyAgICAgICAgICAgIDxzdG9wIG9mZnNldD0iMC40NiIgc3RvcC1jb2xvcj0iIzJjYzNlNiIvPiYjeGE7ICAgICAgICAgICAgPHN0b3Agb2Zmc2V0PSIwLjciIHN0b3AtY29sb3I9IiMyNWFmZDQiLz4mI3hhOyAgICAgICAgICAgIDxzdG9wIG9mZnNldD0iMC45NCIgc3RvcC1jb2xvcj0iIzFjOTJiYSIvPiYjeGE7ICAgICAgICAgICAgPHN0b3Agb2Zmc2V0PSIxIiBzdG9wLWNvbG9yPSIjMTk4YWIzIi8+JiN4YTsgICAgICAgIDwvbGluZWFyR3JhZGllbnQ+JiN4YTsgICAgPC9kZWZzPiYjeGE7ICAgIDx0aXRsZT5JY29uLWFuYWx5dGljcy0xNTA8L3RpdGxlPiYjeGE7ICAgIDxwYXRoIGQ9Ik0xNy4xLDMuNkg5LjY5YS4zNC4zNCwwLDAsMS0uMjItLjA3TDcuMzUsMi4xMmEuNDMuNDMsMCwwLDAtLjIyLS4wNkguOWEuNC40LDAsMCwwLS40LjM5djEzLjFhLjQuNCwwLDAsMCwuNC4zOUgxNy4xYS40LjQsMCwwLDAsLjQtLjM5VjRBLjQuNCwwLDAsMCwxNy4xLDMuNloiIGZpbGw9IiMwMDViYTEiLz4mI3hhOyAgICA8cmVjdCB4PSIyLjA1IiB5PSIyLjgyIiB3aWR0aD0iMy44NiIgaGVpZ2h0PSIwLjc3IiByeD0iMC4xNiIgZmlsbD0iI2ZmZiIvPiYjeGE7ICAgIDxyZWN0IHg9IjIuMDUiIHk9IjIuODIiIHdpZHRoPSIwLjc3IiBoZWlnaHQ9IjAuNzciIHJ4PSIwLjExIiBmaWxsPSIjMWFjM2YyIi8+JiN4YTsgICAgPHBhdGggZD0iTTE3LjEsMy41OEg5YS4zNi4zNiwwLDAsMC0uMjguMTJMNy4zNyw1YS40My40MywwLDAsMS0uMjguMTFILjlhLjQuNCwwLDAsMC0uNC40djEwYS40LjQsMCwwLDAsLjQuMzlIMTcuMWEuNC40LDAsMCwwLC40LS4zOVY0QS40LjQsMCwwLDAsMTcuMSwzLjU4WiIgZmlsbD0idXJsKCNhMmY1YTM5OS1lNTEzLTRiNWQtOWI1MC1lNWNiNjgwNjMyM2QpIi8+JiN4YTsgICAgPHBhdGggZD0iTTEwLjE4LDUuN2EuMTUuMTUsMCwwLDAtLjA4LDBzLS4wOSwwLS4xMy4wN0w2LjgxLDEwLjM2YS4xNi4xNiwwLDAsMCwwLC4xNi4xOS4xOSwwLDAsMCwuMTUuMUg4LjgzTDgsMTMuNGEuMTMuMTMsMCwwLDAsLjA3LjE4LjEuMSwwLDAsMCwuMDcsMGMuMDYsMCwuMDksMCwuMTMtLjA3bDMuMjYtNC42NnMwLS4wNiwwLS4xYS4xNy4xNywwLDAsMC0uMTctLjE2aC0ybC44MS0yLjczQS4xMy4xMywwLDAsMCwxMC4xOCw1LjdaIiBmaWxsPSIjZmZmIi8+JiN4YTs8L3N2Zz4=;fontSize=18;" parent="1" vertex="1">
                    <mxGeometry x="595" y="390" width="80" height="80" as="geometry"/>
                </mxCell>
                <mxCell id="P6MpiE-lxGLdx-rWgf6L-36" style="edgeStyle=orthogonalEdgeStyle;rounded=0;orthogonalLoop=1;jettySize=auto;html=1;exitX=0.5;exitY=0;exitDx=0;exitDy=0;fontSize=18;" parent="1" source="P6MpiE-lxGLdx-rWgf6L-31" target="P6MpiE-lxGLdx-rWgf6L-35" edge="1">
                    <mxGeometry relative="1" as="geometry"/>
                </mxCell>
                <mxCell id="P6MpiE-lxGLdx-rWgf6L-31" value="" style="shape=image;verticalLabelPosition=bottom;verticalAlign=top;imageAspect=0;aspect=fixed;image=data:image/svg+xml,PHN2ZyB4bWxucz0iaHR0cDovL3d3dy53My5vcmcvMjAwMC9zdmciIGlkPSJiNzBhY2YwYS0zNGI0LTRiZGYtOTAyNC03NDk2MDQzZmY5MTUiIHdpZHRoPSIxOCIgaGVpZ2h0PSIxOCIgdmlld0JveD0iMCAwIDE4IDE4Ij4mI3hhOyAgICA8ZGVmcz4mI3hhOyAgICAgICAgPHJhZGlhbEdyYWRpZW50IGlkPSJlMmNmODc0Ni1jOWE4LTRlZWUtODZjMi00OTUxOTgzYzYwMzIiIGN4PSIxMzQyOC44MSIgY3k9IjM1MTguODYiIHI9IjU2LjY3IiBncmFkaWVudFRyYW5zZm9ybT0idHJhbnNsYXRlKC0yMDA1LjMzIC01MTguODMpIHNjYWxlKDAuMTUpIiBncmFkaWVudFVuaXRzPSJ1c2VyU3BhY2VPblVzZSI+JiN4YTsgICAgICAgICAgICA8c3RvcCBvZmZzZXQ9IjAuMTgiIHN0b3AtY29sb3I9IiM1ZWEwZWYiLz4mI3hhOyAgICAgICAgICAgIDxzdG9wIG9mZnNldD0iMSIgc3RvcC1jb2xvcj0iIzAwNzhkNCIvPiYjeGE7ICAgICAgICA8L3JhZGlhbEdyYWRpZW50PiYjeGE7ICAgICAgICA8bGluZWFyR3JhZGllbnQgaWQ9ImJkZDIxM2RkLWQzMTMtNDczYy04ZmY0LTAxMzNmZDNhOTAzMyIgeDE9IjQuNCIgeTE9IjExLjQ4IiB4Mj0iNC4zNyIgeTI9IjcuNTMiIGdyYWRpZW50VW5pdHM9InVzZXJTcGFjZU9uVXNlIj4mI3hhOyAgICAgICAgICAgIDxzdG9wIG9mZnNldD0iMCIgc3RvcC1jb2xvcj0iI2NjYyIvPiYjeGE7ICAgICAgICAgICAgPHN0b3Agb2Zmc2V0PSIxIiBzdG9wLWNvbG9yPSIjZmNmY2ZjIi8+JiN4YTsgICAgICAgIDwvbGluZWFyR3JhZGllbnQ+JiN4YTsgICAgICAgIDxsaW5lYXJHcmFkaWVudCBpZD0iYWZjYzYzYzUtMzY0OS00NDc2LWE3NDItYmNiNTNhNTY5ZjNjIiB4MT0iMTAuMTMiIHkxPSIxNS40NSIgeDI9IjEwLjEzIiB5Mj0iMTEuOSIgZ3JhZGllbnRVbml0cz0idXNlclNwYWNlT25Vc2UiPiYjeGE7ICAgICAgICAgICAgICAgICAgICA8c3RvcCBvZmZzZXQ9IjAiIHN0b3AtY29sb3I9IiNjY2MiLz4mI3hhOyAgICAgICAgICAgIDxzdG9wIG9mZnNldD0iMSIgc3RvcC1jb2xvcj0iI2ZjZmNmYyIvPiYjeGE7ICAgICAgICA8L2xpbmVhckdyYWRpZW50PiYjeGE7ICAgICAgICA8bGluZWFyR3JhZGllbnQgaWQ9ImJkODczZjBiLTk5NTQtNGFhNS1hM2RmLTlmNGM2NGU4NzI5ZCIgeDE9IjE0LjE4IiB5MT0iMTEuMTUiIHgyPSIxNC4xOCIgeTI9IjcuMzgiIGdyYWRpZW50VW5pdHM9InVzZXJTcGFjZU9uVXNlIj4mI3hhOyAgICAgICAgICAgICAgICAgICAgPHN0b3Agb2Zmc2V0PSIwIiBzdG9wLWNvbG9yPSIjY2NjIi8+JiN4YTsgICAgICAgICAgICA8c3RvcCBvZmZzZXQ9IjEiIHN0b3AtY29sb3I9IiNmY2ZjZmMiLz4mI3hhOyAgICAgICAgPC9saW5lYXJHcmFkaWVudD4mI3hhOyAgICA8L2RlZnM+JiN4YTsgICAgPHRpdGxlPkljb24td2ViLTQxPC90aXRsZT4mI3hhOyAgICA8cGF0aCBpZD0iZWU3NWRkMDYtMWFjYS00Zjc2LTlkMTEtZDA1YTI4NDAyMGFkIiBkPSJNMTQuMjEsMTUuNzJBOC41LDguNSwwLDAsMSwzLjc5LDIuMjhsLjA5LS4wNmE4LjUsOC41LDAsMCwxLDEwLjMzLDEzLjUiIGZpbGw9InVybCgjZTJjZjg3NDYtYzlhOC00ZWVlLTg2YzItNDk1MTk4M2M2MDMyKSIvPiYjeGE7ICAgIDxwYXRoIGQ9Ik02LjY5LDcuMjNBMTMsMTMsMCwwLDEsMTUuNiwzLjY1YTguNDcsOC40NywwLDAsMC0xLjQ5LTEuNDQsMTQuMzQsMTQuMzQsMCwwLDAtNC42OSwxLjFBMTIuNTQsMTIuNTQsMCwwLDAsNS4zNCw2LjEzLDIuNzYsMi43NiwwLDAsMSw2LjY5LDcuMjNaIiBmaWxsPSIjZmZmIiBvcGFjaXR5PSIwLjYiLz4mI3hhOyAgICA8cGF0aCBkPSJNMi40OCwxMC42NWExNy44NiwxNy44NiwwLDAsMC0uODMsMi42Miw3LjgyLDcuODIsMCwwLDAsLjYyLjkyYy4xOC4yMy4zNS40NC41NS42NUExNy45NCwxNy45NCwwLDAsMSwzLjksMTEuMzcsMi43NiwyLjc2LDAsMCwxLDIuNDgsMTAuNjVaIiBmaWxsPSIjZmZmIiBvcGFjaXR5PSIwLjYiLz4mI3hhOyAgICA8cGF0aCBkPSJNMy40Niw2LjExYTEyLDEyLDAsMCwxLS42OS0yLjk0LDguMTUsOC4xNSwwLDAsMC0xLjEsMS40NUExMi42OSwxMi42OSwwLDAsMCwyLjI0LDcsMi42OSwyLjY5LDAsMCwxLDMuNDYsNi4xMVoiIGZpbGw9IiNmMmYyZjIiIG9wYWNpdHk9IjAuNTUiLz4mI3hhOyAgICA8Y2lyY2xlIGN4PSI0LjM4IiBjeT0iOC42OCIgcj0iMi43MyIgZmlsbD0idXJsKCNiZGQyMTNkZC1kMzEzLTQ3M2MtOGZmNC0wMTMzZmQzYTkwMzMpIi8+JiN4YTsgICAgPHBhdGggZD0iTTguMzYsMTMuNjdBMS43NywxLjc3LDAsMCwxLDguOSwxMi40YTExLjg4LDExLjg4LDAsMCwxLTIuNTMtMS44NiwyLjc0LDIuNzQsMCwwLDEtMS40OS44MywxMy4xLDEzLjEsMCwwLDAsMS40NSwxLjI4QTEyLjEyLDEyLjEyLDAsMCwwLDguMzgsMTMuOSwxLjc5LDEuNzksMCwwLDEsOC4zNiwxMy42N1oiIGZpbGw9IiNmMmYyZjIiIG9wYWNpdHk9IjAuNTUiLz4mI3hhOyAgICA8cGF0aCBkPSJNMTQuNjYsMTMuODhhMTIsMTIsMCwwLDEtMi43Ni0uMzIuNDEuNDEsMCwwLDEsMCwuMTEsMS43NSwxLjc1LDAsMCwxLS41MSwxLjI0LDEzLjY5LDEzLjY5LDAsMCwwLDMuNDIuMjRBOC4yMSw4LjIxLDAsMCwwLDE2LDEzLjgxLDExLjUsMTEuNSwwLDAsMSwxNC42NiwxMy44OFoiIGZpbGw9IiNmMmYyZjIiIG9wYWNpdHk9IjAuNTUiLz4mI3hhOyAgICA8Y2lyY2xlIGN4PSIxMC4xMyIgY3k9IjEzLjY3IiByPSIxLjc4IiBmaWxsPSJ1cmwoI2FmY2M2M2M1LTM2NDktNDQ3Ni1hNzQyLWJjYjUzYTU2OWYzYykiLz4mI3hhOyAgICA8cGF0aCBkPSJNMTIuMzIsOC45M2ExLjgzLDEuODMsMCwwLDEsLjYxLTFBMjUuNSwyNS41LDAsMCwxLDguNDcsMy43OWExNi45MSwxNi45MSwwLDAsMS0yLTIuOTIsNy42NCw3LjY0LDAsMCwwLTEuMDkuNDJBMTguMTQsMTguMTQsMCwwLDAsNy41Myw0LjQ3LDI2LjQ0LDI2LjQ0LDAsMCwwLDEyLjMyLDguOTNaIiBmaWxsPSIjZjJmMmYyIiBvcGFjaXR5PSIwLjciLz4mI3hhOyAgICA8Y2lyY2xlIGN4PSIxNC4xOCIgY3k9IjkuMjciIHI9IjEuODkiIGZpbGw9InVybCgjYmQ4NzNmMGItOTk1NC00YWE1LWEzZGYtOWY0YzY0ZTg3MjlkKSIvPiYjeGE7ICAgIDxwYXRoIGQ9Ik0xNy4zNSwxMC41NCwxNywxMC4zN2wwLDAtLjMtLjE2LS4wNiwwTDE2LjM4LDEwbC0uMDcsMEwxNiw5LjhhMS43NiwxLjc2LDAsMCwxLS42NC45MmMuMTIuMDguMjUuMTUuMzguMjJsLjA4LjA1LjM1LjE5LDAsMCwuODYuNDVoMGE4LjYzLDguNjMsMCwwLDAsLjI5LTEuMTFaIiBmaWxsPSIjZjJmMmYyIiBvcGFjaXR5PSIwLjU1Ii8+JiN4YTsgICAgPGNpcmNsZSBjeD0iNC4zOCIgY3k9IjguNjgiIHI9IjIuNzMiIGZpbGw9InVybCgjYmRkMjEzZGQtZDMxMy00NzNjLThmZjQtMDEzM2ZkM2E5MDMzKSIvPiYjeGE7ICAgIDxjaXJjbGUgY3g9IjEwLjEzIiBjeT0iMTMuNjciIHI9IjEuNzgiIGZpbGw9InVybCgjYWZjYzYzYzUtMzY0OS00NDc2LWE3NDItYmNiNTNhNTY5ZjNjKSIvPiYjeGE7PC9zdmc+;fontSize=18;" parent="1" vertex="1">
                    <mxGeometry x="755" y="390" width="80" height="80" as="geometry"/>
                </mxCell>
                <mxCell id="P6MpiE-lxGLdx-rWgf6L-32" value="" style="shape=image;verticalLabelPosition=bottom;verticalAlign=top;imageAspect=0;aspect=fixed;image=data:image/svg+xml,PHN2ZyB4bWxucz0iaHR0cDovL3d3dy53My5vcmcvMjAwMC9zdmciIGlkPSJiNzBhY2YwYS0zNGI0LTRiZGYtOTAyNC03NDk2MDQzZmY5MTUiIHdpZHRoPSIxOCIgaGVpZ2h0PSIxOCIgdmlld0JveD0iMCAwIDE4IDE4Ij4mI3hhOyAgICA8ZGVmcz4mI3hhOyAgICAgICAgPHJhZGlhbEdyYWRpZW50IGlkPSJlMmNmODc0Ni1jOWE4LTRlZWUtODZjMi00OTUxOTgzYzYwMzIiIGN4PSIxMzQyOC44MSIgY3k9IjM1MTguODYiIHI9IjU2LjY3IiBncmFkaWVudFRyYW5zZm9ybT0idHJhbnNsYXRlKC0yMDA1LjMzIC01MTguODMpIHNjYWxlKDAuMTUpIiBncmFkaWVudFVuaXRzPSJ1c2VyU3BhY2VPblVzZSI+JiN4YTsgICAgICAgICAgICA8c3RvcCBvZmZzZXQ9IjAuMTgiIHN0b3AtY29sb3I9IiM1ZWEwZWYiLz4mI3hhOyAgICAgICAgICAgIDxzdG9wIG9mZnNldD0iMSIgc3RvcC1jb2xvcj0iIzAwNzhkNCIvPiYjeGE7ICAgICAgICA8L3JhZGlhbEdyYWRpZW50PiYjeGE7ICAgICAgICA8bGluZWFyR3JhZGllbnQgaWQ9ImJkZDIxM2RkLWQzMTMtNDczYy04ZmY0LTAxMzNmZDNhOTAzMyIgeDE9IjQuNCIgeTE9IjExLjQ4IiB4Mj0iNC4zNyIgeTI9IjcuNTMiIGdyYWRpZW50VW5pdHM9InVzZXJTcGFjZU9uVXNlIj4mI3hhOyAgICAgICAgICAgIDxzdG9wIG9mZnNldD0iMCIgc3RvcC1jb2xvcj0iI2NjYyIvPiYjeGE7ICAgICAgICAgICAgPHN0b3Agb2Zmc2V0PSIxIiBzdG9wLWNvbG9yPSIjZmNmY2ZjIi8+JiN4YTsgICAgICAgIDwvbGluZWFyR3JhZGllbnQ+JiN4YTsgICAgICAgIDxsaW5lYXJHcmFkaWVudCBpZD0iYWZjYzYzYzUtMzY0OS00NDc2LWE3NDItYmNiNTNhNTY5ZjNjIiB4MT0iMTAuMTMiIHkxPSIxNS40NSIgeDI9IjEwLjEzIiB5Mj0iMTEuOSIgZ3JhZGllbnRVbml0cz0idXNlclNwYWNlT25Vc2UiPiYjeGE7ICAgICAgICAgICAgICAgICAgICA8c3RvcCBvZmZzZXQ9IjAiIHN0b3AtY29sb3I9IiNjY2MiLz4mI3hhOyAgICAgICAgICAgIDxzdG9wIG9mZnNldD0iMSIgc3RvcC1jb2xvcj0iI2ZjZmNmYyIvPiYjeGE7ICAgICAgICA8L2xpbmVhckdyYWRpZW50PiYjeGE7ICAgICAgICA8bGluZWFyR3JhZGllbnQgaWQ9ImJkODczZjBiLTk5NTQtNGFhNS1hM2RmLTlmNGM2NGU4NzI5ZCIgeDE9IjE0LjE4IiB5MT0iMTEuMTUiIHgyPSIxNC4xOCIgeTI9IjcuMzgiIGdyYWRpZW50VW5pdHM9InVzZXJTcGFjZU9uVXNlIj4mI3hhOyAgICAgICAgICAgICAgICAgICAgPHN0b3Agb2Zmc2V0PSIwIiBzdG9wLWNvbG9yPSIjY2NjIi8+JiN4YTsgICAgICAgICAgICA8c3RvcCBvZmZzZXQ9IjEiIHN0b3AtY29sb3I9IiNmY2ZjZmMiLz4mI3hhOyAgICAgICAgPC9saW5lYXJHcmFkaWVudD4mI3hhOyAgICA8L2RlZnM+JiN4YTsgICAgPHRpdGxlPkljb24td2ViLTQxPC90aXRsZT4mI3hhOyAgICA8cGF0aCBpZD0iZWU3NWRkMDYtMWFjYS00Zjc2LTlkMTEtZDA1YTI4NDAyMGFkIiBkPSJNMTQuMjEsMTUuNzJBOC41LDguNSwwLDAsMSwzLjc5LDIuMjhsLjA5LS4wNmE4LjUsOC41LDAsMCwxLDEwLjMzLDEzLjUiIGZpbGw9InVybCgjZTJjZjg3NDYtYzlhOC00ZWVlLTg2YzItNDk1MTk4M2M2MDMyKSIvPiYjeGE7ICAgIDxwYXRoIGQ9Ik02LjY5LDcuMjNBMTMsMTMsMCwwLDEsMTUuNiwzLjY1YTguNDcsOC40NywwLDAsMC0xLjQ5LTEuNDQsMTQuMzQsMTQuMzQsMCwwLDAtNC42OSwxLjFBMTIuNTQsMTIuNTQsMCwwLDAsNS4zNCw2LjEzLDIuNzYsMi43NiwwLDAsMSw2LjY5LDcuMjNaIiBmaWxsPSIjZmZmIiBvcGFjaXR5PSIwLjYiLz4mI3hhOyAgICA8cGF0aCBkPSJNMi40OCwxMC42NWExNy44NiwxNy44NiwwLDAsMC0uODMsMi42Miw3LjgyLDcuODIsMCwwLDAsLjYyLjkyYy4xOC4yMy4zNS40NC41NS42NUExNy45NCwxNy45NCwwLDAsMSwzLjksMTEuMzcsMi43NiwyLjc2LDAsMCwxLDIuNDgsMTAuNjVaIiBmaWxsPSIjZmZmIiBvcGFjaXR5PSIwLjYiLz4mI3hhOyAgICA8cGF0aCBkPSJNMy40Niw2LjExYTEyLDEyLDAsMCwxLS42OS0yLjk0LDguMTUsOC4xNSwwLDAsMC0xLjEsMS40NUExMi42OSwxMi42OSwwLDAsMCwyLjI0LDcsMi42OSwyLjY5LDAsMCwxLDMuNDYsNi4xMVoiIGZpbGw9IiNmMmYyZjIiIG9wYWNpdHk9IjAuNTUiLz4mI3hhOyAgICA8Y2lyY2xlIGN4PSI0LjM4IiBjeT0iOC42OCIgcj0iMi43MyIgZmlsbD0idXJsKCNiZGQyMTNkZC1kMzEzLTQ3M2MtOGZmNC0wMTMzZmQzYTkwMzMpIi8+JiN4YTsgICAgPHBhdGggZD0iTTguMzYsMTMuNjdBMS43NywxLjc3LDAsMCwxLDguOSwxMi40YTExLjg4LDExLjg4LDAsMCwxLTIuNTMtMS44NiwyLjc0LDIuNzQsMCwwLDEtMS40OS44MywxMy4xLDEzLjEsMCwwLDAsMS40NSwxLjI4QTEyLjEyLDEyLjEyLDAsMCwwLDguMzgsMTMuOSwxLjc5LDEuNzksMCwwLDEsOC4zNiwxMy42N1oiIGZpbGw9IiNmMmYyZjIiIG9wYWNpdHk9IjAuNTUiLz4mI3hhOyAgICA8cGF0aCBkPSJNMTQuNjYsMTMuODhhMTIsMTIsMCwwLDEtMi43Ni0uMzIuNDEuNDEsMCwwLDEsMCwuMTEsMS43NSwxLjc1LDAsMCwxLS41MSwxLjI0LDEzLjY5LDEzLjY5LDAsMCwwLDMuNDIuMjRBOC4yMSw4LjIxLDAsMCwwLDE2LDEzLjgxLDExLjUsMTEuNSwwLDAsMSwxNC42NiwxMy44OFoiIGZpbGw9IiNmMmYyZjIiIG9wYWNpdHk9IjAuNTUiLz4mI3hhOyAgICA8Y2lyY2xlIGN4PSIxMC4xMyIgY3k9IjEzLjY3IiByPSIxLjc4IiBmaWxsPSJ1cmwoI2FmY2M2M2M1LTM2NDktNDQ3Ni1hNzQyLWJjYjUzYTU2OWYzYykiLz4mI3hhOyAgICA8cGF0aCBkPSJNMTIuMzIsOC45M2ExLjgzLDEuODMsMCwwLDEsLjYxLTFBMjUuNSwyNS41LDAsMCwxLDguNDcsMy43OWExNi45MSwxNi45MSwwLDAsMS0yLTIuOTIsNy42NCw3LjY0LDAsMCwwLTEuMDkuNDJBMTguMTQsMTguMTQsMCwwLDAsNy41Myw0LjQ3LDI2LjQ0LDI2LjQ0LDAsMCwwLDEyLjMyLDguOTNaIiBmaWxsPSIjZjJmMmYyIiBvcGFjaXR5PSIwLjciLz4mI3hhOyAgICA8Y2lyY2xlIGN4PSIxNC4xOCIgY3k9IjkuMjciIHI9IjEuODkiIGZpbGw9InVybCgjYmQ4NzNmMGItOTk1NC00YWE1LWEzZGYtOWY0YzY0ZTg3MjlkKSIvPiYjeGE7ICAgIDxwYXRoIGQ9Ik0xNy4zNSwxMC41NCwxNywxMC4zN2wwLDAtLjMtLjE2LS4wNiwwTDE2LjM4LDEwbC0uMDcsMEwxNiw5LjhhMS43NiwxLjc2LDAsMCwxLS42NC45MmMuMTIuMDguMjUuMTUuMzguMjJsLjA4LjA1LjM1LjE5LDAsMCwuODYuNDVoMGE4LjYzLDguNjMsMCwwLDAsLjI5LTEuMTFaIiBmaWxsPSIjZjJmMmYyIiBvcGFjaXR5PSIwLjU1Ii8+JiN4YTsgICAgPGNpcmNsZSBjeD0iNC4zOCIgY3k9IjguNjgiIHI9IjIuNzMiIGZpbGw9InVybCgjYmRkMjEzZGQtZDMxMy00NzNjLThmZjQtMDEzM2ZkM2E5MDMzKSIvPiYjeGE7ICAgIDxjaXJjbGUgY3g9IjEwLjEzIiBjeT0iMTMuNjciIHI9IjEuNzgiIGZpbGw9InVybCgjYWZjYzYzYzUtMzY0OS00NDc2LWE3NDItYmNiNTNhNTY5ZjNjKSIvPiYjeGE7PC9zdmc+;fontSize=18;" parent="1" vertex="1">
                    <mxGeometry x="115" y="230" width="80" height="80" as="geometry"/>
                </mxCell>
                <mxCell id="P6MpiE-lxGLdx-rWgf6L-35" value="" style="shape=image;verticalLabelPosition=bottom;verticalAlign=top;imageAspect=0;aspect=fixed;image=data:image/svg+xml,PHN2ZyB4bWxucz0iaHR0cDovL3d3dy53My5vcmcvMjAwMC9zdmciIGlkPSJlMjY3NTQ5OS02ZGYxLTRmYWEtYWU3OS1hNDJlMDNjN2NkMjEiIHdpZHRoPSIxOCIgaGVpZ2h0PSIxOCIgdmlld0JveD0iMCAwIDE4IDE4Ij48ZGVmcz48bGluZWFyR3JhZGllbnQgaWQ9ImJhNzc1Mzg4LWFhMGEtNDVlYS05NzViLWNhNWM1NzlkOTIxYiIgeDE9IjkiIHkxPSIxNi44MiIgeDI9IjkiIHkyPSIxLjE4IiBncmFkaWVudFVuaXRzPSJ1c2VyU3BhY2VPblVzZSI+PHN0b3Agb2Zmc2V0PSIwIiBzdG9wLWNvbG9yPSIjMTk4YWIzIi8+PHN0b3Agb2Zmc2V0PSIwLjA5IiBzdG9wLWNvbG9yPSIjMWY5ZGM0Ii8+PHN0b3Agb2Zmc2V0PSIwLjI0IiBzdG9wLWNvbG9yPSIjMjhiNWQ5Ii8+PHN0b3Agb2Zmc2V0PSIwLjQiIHN0b3AtY29sb3I9IiMyZGM2ZTkiLz48c3RvcCBvZmZzZXQ9IjAuNTciIHN0b3AtY29sb3I9IiMzMWQxZjIiLz48c3RvcCBvZmZzZXQ9IjAuNzgiIHN0b3AtY29sb3I9IiMzMmQ0ZjUiLz48L2xpbmVhckdyYWRpZW50PjxsaW5lYXJHcmFkaWVudCBpZD0iYjIwYzJkMjMtMTE0MC00NDU3LWI1NzAtMWMxMTkyNjdkYWI5IiB4MT0iOC4zNiIgeTE9IjExLjM1IiB4Mj0iOC4zNiIgeTI9IjE0LjQ2IiBncmFkaWVudFVuaXRzPSJ1c2VyU3BhY2VPblVzZSI+PHN0b3Agb2Zmc2V0PSIwIiBzdG9wLWNvbG9yPSIjYzY5YWViIi8+PHN0b3Agb2Zmc2V0PSIxIiBzdG9wLWNvbG9yPSIjNmY0YmIyIi8+PC9saW5lYXJHcmFkaWVudD48L2RlZnM+PHRpdGxlPkljb24taW50ZWdyYXRpb24tMjA1PC90aXRsZT48cGF0aCBkPSJNMTQuMTgsNS44OUE0Ljg1LDQuODUsMCwwLDAsOS4yMywxLjE4LDUsNSwwLDAsMCw0LjQ4LDQuNDcsNC42MSw0LjYxLDAsMCwwLC41LDksNC42Nyw0LjY3LDAsMCwwLDUuMjksMTMuNWEzLDMsMCwwLDAsLjQyLDBoMS4yYTEuNDcsMS40NywwLDAsMS0uMTEtLjU2djBBMS41MSwxLjUxLDAsMCwxLDcsMTIuMjFINS42bC0uMzEsMEEzLjQxLDMuNDEsMCwwLDEsMS43Nyw5LDMuMzMsMy4zMywwLDAsMSw0LjY4LDUuNzNsLjc2LS4xMi4yNS0uNzNBMy43MywzLjczLDAsMCwxLDkuMjMsMi40NSwzLjYsMy42LDAsMCwxLDEyLjkxLDUuOVY3TDE0LDcuMTVhMi41OSwyLjU5LDAsMCwxLDIuMjYsMi40OSwyLjYzLDIuNjMsMCwwLDEtMi42MiwyLjU0aC0uMTVsLS4wOCwwaC0xQTMuOTIsMy45MiwwLDAsMCw4LjU0LDlhLjY0LjY0LDAsMSwwLDAsMS4yNywyLjY1LDIuNjUsMCwwLDEsMCw1LjI5LjY0LjY0LDAsMSwwLDAsMS4yNywzLjkyLDMuOTIsMCwwLDAsMy44Ny0zLjM0aDEuMDVhLjY0LjY0LDAsMCwwLC4yLDBBMy45MSwzLjkxLDAsMCwwLDE3LjUsOS42NCwzLjg2LDMuODYsMCwwLDAsMTQuMTgsNS44OVoiIGZpbGw9InVybCgjYmE3NzUzODgtYWEwYS00NWVhLTk3NWItY2E1YzU3OWQ5MjFiKSIvPjxyZWN0IHg9IjYuOCIgeT0iMTEuMzUiIHdpZHRoPSIzLjEyIiBoZWlnaHQ9IjMuMTIiIHJ4PSIxLjU0IiBmaWxsPSJ1cmwoI2IyMGMyZDIzLTExNDAtNDQ1Ny1iNTcwLTFjMTE5MjY3ZGFiOSkiLz48L3N2Zz4=;fontSize=18;" parent="1" vertex="1">
                    <mxGeometry x="755" y="236" width="80" height="80" as="geometry"/>
                </mxCell>
                <mxCell id="P6MpiE-lxGLdx-rWgf6L-37" value="1. https://www.tsa.gov/foia/readingroom" style="text;html=1;strokeColor=none;fillColor=none;align=left;verticalAlign=middle;whiteSpace=wrap;rounded=0;fontSize=13;spacing=3;" parent="1" vertex="1">
                    <mxGeometry x="76" y="810" width="474" height="20" as="geometry"/>
                </mxCell>
                <mxCell id="P6MpiE-lxGLdx-rWgf6L-38" value="TSA Webite&lt;sup style=&quot;font-size: 12px;&quot;&gt;1&lt;/sup&gt;" style="text;html=1;strokeColor=none;fillColor=none;align=center;verticalAlign=middle;whiteSpace=wrap;rounded=0;fontSize=12;spacing=3;" parent="1" vertex="1">
                    <mxGeometry x="90" y="200" width="130" height="20" as="geometry"/>
                </mxCell>
                <mxCell id="P6MpiE-lxGLdx-rWgf6L-39" value="GetThroughputFile&lt;br&gt;(TimerTrigger)" style="text;html=1;strokeColor=none;fillColor=none;align=center;verticalAlign=middle;whiteSpace=wrap;rounded=0;fontSize=12;spacing=3;" parent="1" vertex="1">
                    <mxGeometry x="90" y="475" width="130" height="20" as="geometry"/>
                </mxCell>
                <mxCell id="P6MpiE-lxGLdx-rWgf6L-40" value="PDF FIle Storage or&lt;br&gt;StorageQueue?" style="text;html=1;strokeColor=none;fillColor=none;align=center;verticalAlign=middle;whiteSpace=wrap;rounded=0;fontSize=12;spacing=3;" parent="1" vertex="1">
                    <mxGeometry x="255" y="475" width="130" height="20" as="geometry"/>
                </mxCell>
                <mxCell id="P6MpiE-lxGLdx-rWgf6L-41" value="CvtThroughputToJson&lt;br&gt;(Blob or Queue Trigger)" style="text;html=1;strokeColor=none;fillColor=none;align=center;verticalAlign=middle;whiteSpace=wrap;rounded=0;fontSize=12;spacing=3;" parent="1" vertex="1">
                    <mxGeometry x="385" y="475" width="180" height="20" as="geometry"/>
                </mxCell>
                <mxCell id="P6MpiE-lxGLdx-rWgf6L-42" value="CvtThroughputToJson&lt;br&gt;(Blob or Queue Trigger)" style="text;html=1;strokeColor=none;fillColor=none;align=center;verticalAlign=middle;whiteSpace=wrap;rounded=0;fontSize=12;spacing=3;" parent="1" vertex="1">
                    <mxGeometry x="385" y="475" width="180" height="20" as="geometry"/>
                </mxCell>
                <mxCell id="P6MpiE-lxGLdx-rWgf6L-43" value="Form Recognizer" style="text;html=1;strokeColor=none;fillColor=none;align=center;verticalAlign=middle;whiteSpace=wrap;rounded=0;fontSize=12;spacing=3;" parent="1" vertex="1">
                    <mxGeometry x="385" y="203" width="180" height="20" as="geometry"/>
                </mxCell>
                <mxCell id="P6MpiE-lxGLdx-rWgf6L-44" value="/raw/tsa/throughput/" style="text;html=1;strokeColor=none;fillColor=none;align=center;verticalAlign=middle;whiteSpace=wrap;rounded=0;fontSize=12;spacing=3;" parent="1" vertex="1">
                    <mxGeometry x="545" y="360" width="180" height="20" as="geometry"/>
                </mxCell>
                <mxCell id="P6MpiE-lxGLdx-rWgf6L-45" value="LoadAirportCollection" style="text;html=1;strokeColor=none;fillColor=none;align=center;verticalAlign=middle;whiteSpace=wrap;rounded=0;fontSize=12;spacing=3;" parent="1" vertex="1">
                    <mxGeometry x="545" y="630" width="180" height="20" as="geometry"/>
                </mxCell>
                <mxCell id="P6MpiE-lxGLdx-rWgf6L-46" value="AirportCollection" style="text;html=1;strokeColor=none;fillColor=none;align=center;verticalAlign=middle;whiteSpace=wrap;rounded=0;fontSize=12;spacing=3;" parent="1" vertex="1">
                    <mxGeometry x="705" y="630" width="180" height="20" as="geometry"/>
                </mxCell>
                <mxCell id="P6MpiE-lxGLdx-rWgf6L-47" value="AirportsAppService" style="text;html=1;strokeColor=none;fillColor=none;align=left;verticalAlign=middle;whiteSpace=wrap;rounded=0;fontSize=12;spacing=3;" parent="1" vertex="1">
                    <mxGeometry x="845" y="420" width="120" height="20" as="geometry"/>
                </mxCell>
                <mxCell id="P6MpiE-lxGLdx-rWgf6L-48" value="/airports/{airport}/tsa/throughput&lt;br&gt;/tsa/throughput/{airport}" style="text;html=1;strokeColor=none;fillColor=none;align=left;verticalAlign=middle;whiteSpace=wrap;rounded=0;fontSize=12;spacing=3;" parent="1" vertex="1">
                    <mxGeometry x="845" y="266" width="120" height="20" as="geometry"/>
                </mxCell>
                <mxCell id="P6MpiE-lxGLdx-rWgf6L-49" value="DrawIO Azure Icons&lt;br style=&quot;font-size: 12px;&quot;&gt;https://github.com/pacodelacruz/diagrams-net-azure-libraries" style="text;html=1;strokeColor=none;fillColor=none;align=left;verticalAlign=middle;whiteSpace=wrap;rounded=0;fontSize=12;spacing=3;" parent="1" vertex="1">
                    <mxGeometry x="740" y="810" width="340" height="20" as="geometry"/>
                </mxCell>
            </root>
        </mxGraphModel>
    </diagram>
</mxfile>